<svg xmlns="http://www.w3.org/2000/svg" width="161.42" height="198.12" viewBox="0 0 161.42 198.12">
	<style type="text/css">
		.st0{fill:#fff;}
	</style>
	<path class="st0" d="M154.8,111.12C154.4,113.02 150.3,114.12 148.4,114.52C142.7,115.42 136.6,114.72 131.2,112.82C127.4,111.52 123.8,109.82 120.4,107.82C117,105.72 113.8,103.32 110.8,100.62C114.5,100.42 118.2,100.22 122,100.32C125.8,100.32 129.5,100.52 133.3,101.02C140.3,101.82 148.1,104.22 153.6,108.72C154.5,109.72 154.9,110.42 154.8,111.12M88.4,98.62C78.6,100.22 69.3,102.32 60.5,104.72C61.6,104.42 66.4,95.32 67.5,93.42C72.6,84.52 76.7,75.12 79.7,65.32C85,75.72 91.4,85.72 99.2,94.52C99.9,95.32 100.7,96.12 101.4,96.92C97,97.32 92.7,97.92 88.4,98.62M70.5,27.42C69.8,23.62 69.8,19.82 70.2,16.12C70.4,14.32 70.8,12.52 71.3,10.82C71.8,9.42 72.8,5.92 74.3,5.42C76.9,4.72 77.7,10.32 78,11.92C79.7,20.92 78.2,31.02 76.2,39.82C75.9,41.22 75.5,42.62 75.2,44.02C74.6,42.32 74,40.62 73.4,38.82C72.2,34.92 71.1,31.12 70.5,27.42M41.2,117.92C38.9,121.52 36.6,124.82 34.5,127.62C29.3,134.72 23.4,143.02 14.8,146.22C13.2,146.82 11,147.42 8.8,147.32C6.8,147.22 4.8,146.32 4.9,144.02C4.9,142.82 5.5,141.32 6.4,139.82C7.4,138.22 8.6,136.62 9.9,135.32C12.7,132.32 16.3,129.52 20.4,126.82C26.7,122.72 34.2,119.02 42.6,115.82C42.2,116.42 41.7,117.22 41.2,117.92M121.9,95.62C118,95.62 114.2,95.82 110.4,96.02C109,96.12 107.6,96.22 106.2,96.32C104.8,94.82 103.4,93.32 102.1,91.82C93.8,81.92 87,70.62 81.4,58.92C82.9,53.22 84,47.32 84.8,41.22C86.1,30.02 86.5,17.22 82.3,6.52C80.9,2.82 77,-1.67 72.5,0.62C67.4,3.22 65.9,10.42 65.5,15.62C65.2,19.82 65.4,24.02 66.1,28.12C66.8,32.22 68,36.12 69.2,40.12C70.4,43.72 71.7,47.32 73.1,50.82C72.2,53.62 71.3,56.32 70.3,59.02C68,65.12 65.5,70.82 63.1,76.42C61.8,79.12 60.6,81.82 59.4,84.52C55.6,92.92 51.4,101.22 46.7,109.22C35.8,113.12 26,117.52 17.8,122.82C13.4,125.62 9.6,128.72 6.4,132.02C3.4,135.22 0.3,139.32 0,143.82C-0.09,146.42 0.9,148.92 3,150.42C5.9,152.62 9.7,152.42 13.1,151.72C24.1,149.42 32.6,139.92 39.8,131.92C44.8,126.42 50.4,119.42 56.3,111.02L56.3,110.92C66.4,107.82 77.5,105.12 89.2,103.22C94.5,102.32 100,101.62 105.6,101.12C109.5,104.82 113.8,108.12 118.4,110.92C122,113.12 125.9,115.02 129.9,116.42C134,117.72 138.1,118.82 142.3,119.52C144.4,119.82 146.6,119.92 148.8,119.92C153.8,119.72 160.9,117.82 161.4,111.82C161.5,109.92 161.1,108.32 160.3,106.92C156.4,99.92 142.9,97.72 136.7,96.72C131.8,95.92 126.8,95.62 121.9,95.62"/>
	<path class="st0" d="M83.2,186.82C81.7,188.62 79.4,189.52 76.3,189.52L74,189.52L74,168.02L77,168.02C79.8,168.02 81.9,168.82 83.3,170.52C84.7,172.22 85.4,174.82 85.4,178.32C85.4,182.22 84.7,185.02 83.2,186.82M76.9,159.72L63.6,159.72L63.6,198.12L76,198.12C82.4,198.12 87.3,196.42 90.9,192.92C94.4,189.42 96.2,184.52 96.2,178.12C96.2,172.22 94.5,167.62 91.2,164.42C87.8,161.32 83.1,159.72 76.9,159.72"/>
	<path class="st0" d="M45.6,175.62C44.7,176.52 43.4,176.92 41.9,176.92L40,176.92L40,168.12L42.7,168.12C45.6,168.12 47,169.42 47,172.02C47,173.52 46.5,174.72 45.6,175.62M53.8,162.92C51.4,160.82 47.7,159.72 42.9,159.72L29.6,159.72L29.6,198.12L40,198.12L40,185.42L42.9,185.42C47.6,185.42 51.1,184.22 53.7,181.92C56.2,179.62 57.5,176.32 57.5,172.02C57.5,168.02 56.3,165.02 53.8,162.92"/>
	<path class="st0" d="M103.1,198.12L113.3,198.12L113.3,183.72L124.8,183.72L124.8,175.42L113.3,175.42L113.3,168.02L125.8,168.02L125.8,159.72L103.1,159.72C103.1,159.72 103.1,198.12 103.1,198.12"/>
</svg>