<svg xmlns="http://www.w3.org/2000/svg" width="146.8" height="196.5" viewBox="0 0 146.8 196.5">
	<style type="text/css">
		.st0{fill:#fff;}
	</style>
	<path class="st0" d="M21.1,177C21.1,173.6 20.39,171.1 19.1,169.39C17.8,167.69 15.7,166.89 13,166.89L10,166.89L10,187.69L12.2,187.69C15.2,187.69 17.5,186.8 18.89,185C20.3,183.19 21.1,180.69 21.1,177M31.5,176.69C31.5,182.89 29.79,187.69 26.4,191C23,194.39 18.2,196 12,196L0,196L0,158.89L12.8,158.89C18.8,158.89 23.39,160.39 26.6,163.5C29.9,166.5 31.5,170.89 31.5,176.69"/>
	<path class="st0" d="M47.4,177.39C47.4,184.59 49.9,188.19 54.9,188.19C57.4,188.19 59.3,187.29 60.5,185.59C61.7,183.89 62.3,181.09 62.3,177.39C62.3,173.69 61.7,171 60.4,169.19C59.1,167.39 57.3,166.5 54.8,166.5C49.9,166.59 47.4,170.19 47.4,177.39M72.9,177.39C72.9,183.59 71.4,188.39 68.3,191.59C65.19,194.79 60.8,196.5 54.8,196.5C49,196.5 44.5,194.89 41.4,191.59C38.3,188.29 36.7,183.59 36.7,177.29C36.7,171.09 38.2,166.39 41.3,163.09C44.4,159.79 48.9,158.19 54.8,158.19C60.7,158.19 65.19,159.79 68.19,163C71.19,166.19 72.9,171.19 72.9,177.39"/>
	<path class="st0" d="M96.09,166.6C93.69,166.6 91.9,167.6 90.5,169.5C89.09,171.4 88.5,174.2 88.5,177.6C88.5,184.7 91.19,188.3 96.69,188.3C98.29,188.3 99.9,188.1 101.5,187.6C103.09,187.1 104.59,186.6 106.09,185.9L106.09,194.4C103,195.8 99.5,196.5 95.59,196.5C90,196.5 85.69,194.9 82.69,191.6C79.69,188.3 78.19,183.7 78.19,177.5C78.19,173.7 78.89,170.3 80.4,167.4C81.9,164.5 83.9,162.2 86.59,160.7C89.29,159.2 92.5,158.4 96.19,158.4C100.19,158.4 104,159.3 107.69,161L104.59,168.9C103.19,168.3 101.9,167.7 100.5,167.3C99.09,166.9 97.69,166.6 96.09,166.6"/>
	<path class="st0" d="M146.8,196L135.19,196L128,184.39L120.8,196L109.5,196L121.8,177L110.2,158.89L121.3,158.89L128,170.39L134.4,158.89L145.9,158.89L134.1,177.8Z"/>
	<path class="st0" d="M134.1,120.19C134.1,122.29 132.4,124.09 130.2,124.09L87.3,124.09C87.1,124.09 86.9,124.09 86.7,124L86.7,92.29L125.2,92.29C126.2,92.29 126.9,91.5 126.9,90.59C126.9,89.69 126.1,88.89 125.2,88.89L86.8,88.89L86.8,78.29L125.3,78.29C126.3,78.29 127,77.5 127,76.59C127,75.59 126.2,74.89 125.3,74.89L86.8,74.89L86.8,64.69L125.3,64.69C126.3,64.69 127,63.89 127,62.99C127,61.99 126.2,61.29 125.3,61.29L86.8,61.29L86.8,50.89L124.4,50.89C125.3,50.89 126.1,50.09 126.1,49.19C126.1,48.19 125.3,47.5 124.4,47.5L86.8,47.5L86.8,17.09C87,17.09 87.2,17 87.4,17L130.2,17C132.4,17 134.1,18.69 134.1,20.89L134.1,120.19ZM61.7,96.59L50,96.59C50,96.59 44.5,66.89 44,61.19L43.9,61.19C43.1,66.79 36.8,96.59 36.8,96.59L25,96.59L15.1,44L24.7,44C24.7,44 31.1,79 31.8,84.19L32,84.19C32.7,78.69 40,44 40,44L48.5,44C48.5,44 55,78.29 55.6,84L55.7,84C56.5,78.19 63.3,44 63.3,44L72.5,44ZM130.2,11.79L87.3,11.79L86.7,11.79L86.7,0L3.2,11.19L3.2,130.09L86.8,141.5L86.8,129.3L87.4,129.3L130.2,129.3C135.2,129.3 139.3,125.19 139.3,120.19L139.3,20.89C139.3,15.89 135.2,11.79 130.2,11.79"/>
</svg>