<svg xmlns="http://www.w3.org/2000/svg" width="503.01" height="512" viewBox="0 0 503.01 512">
	<style type="text/css">
		.st0{fill:#fff;}
	</style>
	<path class="st0" d="M269.47,107.78L293.09,166.98L293.18,167.07L305.4,197.61L449.12,197.61L485.05,107.78Z"/>
	<path class="st0" d="M323.36,296.42L431.15,296.42C436.11,296.42 440.14,292.39 440.14,287.43L440.14,260.49L458.1,260.49C463.06,260.49 467.08,256.46 467.08,251.5L467.08,224.56C467.08,219.59 463.06,215.57 458.1,215.57L296.42,215.57C291.46,215.57 287.43,219.59 287.43,224.56L287.43,251.5C287.43,256.46 291.46,260.49 296.42,260.49L314.38,260.49L314.38,287.43C314.38,292.39 318.4,296.42 323.36,296.42"/>
	<path class="st0" d="M368.28,388.49L368.28,404.2C368.28,409.17 372.3,413.19 377.26,413.19C382.22,413.19 386.24,409.17 386.24,404.2L386.24,388.49L413.19,368.27L413.19,314.38L341.33,314.38L341.33,368.27Z"/>
	<path class="st0" d="M467.08,44.91L341.33,44.91C336.37,44.91 332.35,40.89 332.35,35.93C332.35,30.96 336.37,26.94 341.33,26.94L467.08,26.94C472.04,26.94 476.07,30.96 476.07,35.93C476.07,40.89 472.04,44.91 467.08,44.91M494.03,0L260.49,0C255.53,0 251.5,4.02 251.5,8.98L251.5,80.84C251.53,84.1 253.32,87.09 256.18,88.65C258.96,90.45 245.31,89.82 494.03,89.82C498.99,89.82 503.01,85.8 503.01,80.84L503.01,8.98C503.01,4.02 498.99,0 494.03,0"/>
	<path class="st0" d="M253.21,140.3L246.65,104.37C241.17,101.09 237.08,95.91 235.16,89.82L185.66,89.82C181.27,89.75 177.47,92.86 176.68,97.18L168.87,140.3C196.49,132.84 225.59,132.84 253.21,140.3Z"/>
	<path class="st0" d="M148.66,198.6C151.54,196.86 155.15,196.88 158.02,198.66C160.88,200.43 162.51,203.65 162.24,207.01C161.97,210.37 159.85,213.29 156.74,214.59C125.12,230.39 107.79,262.64 107.79,305.4C107.79,310.36 103.76,314.38 98.8,314.38C93.84,314.38 89.82,310.36 89.82,305.4C89.82,255.46 110.75,217.55 148.66,198.6ZM211.08,260.49C233.41,260.49 251.5,278.58 251.5,300.91C251.5,323.23 233.41,341.33 211.08,341.33C188.76,341.33 170.66,323.23 170.66,300.91C170.71,278.6 188.78,260.54 211.08,260.49M179.64,179.64C184.61,179.64 188.63,183.67 188.63,188.63C188.63,193.59 184.61,197.61 179.64,197.61C174.68,197.61 170.66,193.59 170.66,188.63C170.66,183.67 174.68,179.64 179.64,179.64M62.87,300.91C62.8,365.88 105.08,423.32 167.14,442.56C229.2,461.8 296.56,438.34 333.24,384.71L323.36,377.26L323.36,314.38C308.48,314.38 296.42,302.32 296.42,287.43L296.42,278.45C281.53,278.45 269.47,266.39 269.47,251.5L269.47,224.56C269.52,213.42 276.41,203.47 286.81,199.49L273.6,166.53C227.7,145.28 174.13,148.88 131.48,176.07C88.83,203.27 62.97,250.32 62.87,300.91Z"/>
	<path class="st0" d="M185.66,511.99L236.5,511.99C240.9,512.07 244.7,508.95 245.49,504.63L253.3,461.51C225.71,468.96 196.64,468.96 169.05,461.51L176.86,504.63C177.64,508.88 181.34,511.98 185.66,511.99"/>
	<path class="st0" d="M67.72,384.62L42.75,420.55C40.32,424.12 40.78,428.91 43.83,431.96L79.76,467.89C82.83,470.92 87.62,471.33 91.17,468.88L127.1,443.91C102.61,429.49 82.18,409.09 67.72,384.62Z"/>
	<path class="st0" d="M299.56,441.3L339.89,469.24C343.46,471.67 348.25,471.21 351.3,468.16C389.92,429 389.03,431.24 389.57,428.19C381.21,432.48 371.22,432.11 363.21,427.21C355.2,422.31 350.31,413.6 350.31,404.2L350.31,397.47L347.44,395.22C334.75,413.66 318.47,429.33 299.56,441.3"/>
	<path class="st0" d="M79.85,133.65L43.92,169.58C40.9,172.66 40.48,177.44 42.93,180.99L67.9,216.92C82.39,192.29 102.91,171.76 127.55,157.28L91.62,132.31C87.91,129.74 82.88,130.32 79.85,133.65Z"/>
	<path class="st0" d="M0,275.49L0,326.33C-0.07,330.72 3.04,334.52 7.36,335.31L50.48,343.12C43.03,315.53 43.03,286.46 50.48,258.87L7.36,266.68C3.11,267.46 0.01,271.16 0,275.49"/>
</svg>